<svg xmlns="http://www.w3.org/2000/svg" viewBox="0 0 220.587 51"><g transform="translate(-55 -304)"><g transform="translate(5)"><path d="M7,0H44a7,7,0,0,1,7,7V44a7,7,0,0,1-7,7H7a7,7,0,0,1-7-7V7A7,7,0,0,1,7,0Z" transform="translate(50 304)" fill="#4e71ff"/><path d="M14.725,50c6.9,0,11.8-5,11.8-12.175V17.85A2.81,2.81,0,0,0,23.4,14.725h-.65a2.81,2.81,0,0,0-3.125,3.125v20.2c0,3.925-2.375,5.35-4.9,5.35-2.375,0-4.9-1.275-4.9-5.35V17.85A2.81,2.81,0,0,0,6.7,14.725H6.075A2.81,2.81,0,0,0,2.95,17.85V37.825C2.95,45,7.775,50,14.725,50ZM44.95,21.9c-4.057,0-5.984,2.066-6.651,3.541v-.566A2.73,2.73,0,0,0,35.225,21.9a2.8,2.8,0,0,0-3.075,3.125V56.55a2.81,2.81,0,0,0,3.125,3.125h.3A2.81,2.81,0,0,0,38.7,56.55V46.925C39.4,48.25,41.4,50,44.95,50c5.075,0,8.4-2.975,8.4-10.125V32.1c0-7.225-3.325-10.2-8.4-10.2Zm1.8,17.45c0,3.375-1.6,5-4.05,5-2.325,0-4.025-1.5-4.025-4.875V32.6c0-3.475,1.65-5.05,4.025-5.05,2.425,0,4.05,1.6,4.05,5.05ZM71.25,21.9c-4.058,0-5.983,2.066-6.65,3.541v-.566A2.73,2.73,0,0,0,61.525,21.9a2.8,2.8,0,0,0-3.075,3.125V56.55a2.81,2.81,0,0,0,3.125,3.125h.3A2.81,2.81,0,0,0,65,56.55V46.925C65.7,48.25,67.7,50,71.249,50c5.075,0,8.4-2.975,8.4-10.125V32.1c0-7.225-3.325-10.2-8.4-10.2Zm1.8,17.45c0,3.375-1.6,5-4.05,5-2.325,0-4.025-1.5-4.025-4.875V32.6c0-3.475,1.65-5.05,4.025-5.05,2.425,0,4.05,1.6,4.05,5.05ZM94.575,50c6.625,0,10.6-4.275,10.6-11.15V32.9c0-6.675-3.975-11-10.6-11-6.75,0-10.6,4.325-10.6,11v5.95C83.975,45.725,87.825,50,94.575,50Zm0-5.875c-2.275,0-4.05-1.325-4.05-4.35v-7.7c0-2.975,1.75-4.3,4.05-4.3,2.25,0,4.05,1.325,4.05,4.3v7.7C98.625,42.8,96.775,44.125,94.575,44.125Zm18.625-25.4a3.963,3.963,0,1,0-3.975-3.95A3.953,3.953,0,0,0,113.2,18.725ZM113.325,50a2.81,2.81,0,0,0,3.125-3.125V25.025a2.81,2.81,0,0,0-3.125-3.125h-.275a2.81,2.81,0,0,0-3.125,3.125v21.85A2.81,2.81,0,0,0,113.05,50ZM134.85,21.9A7.229,7.229,0,0,0,128.2,25.5v-.469a3.075,3.075,0,1,0-6.15,0v21.85A2.81,2.81,0,0,0,125.174,50h.275a2.81,2.81,0,0,0,3.125-3.125v-14.2c0-3.625,1.35-5.075,4.025-5.075q4.05,0,4.05,4.95V46.875A2.81,2.81,0,0,0,139.775,50h.35a2.81,2.81,0,0,0,3.125-3.125v-14.8c0-7.15-3.325-10.175-8.4-10.175ZM157.725,50c2.347,0,3.4-.889,3.4-3.1a2.621,2.621,0,0,0-2.258-2.852c-2.427-.377-3.016-1.353-3.016-5.2v-11.2h2.2A2.609,2.609,0,0,0,161,24.777c0-1.85-1-2.875-3.025-2.875H155.85V18.527c0-1.65-.775-2.35-2.15-2.35-1.425,0-2,1.05-2.525,3.025a4.341,4.341,0,0,1-.674,1.679,2.933,2.933,0,0,1-1.225,1c-1.65.875-2.7,1.35-2.7,3.125,0,1.687.842,2.628,2.363,2.628h.361V39.4c0,6.45,1.65,10.6,8.425,10.6Z" transform="translate(109.463 295.217)" fill="#3e3e3e"/><path d="M24.433,30.339H9.906A2.906,2.906,0,0,1,7,27.433V12.906a2.906,2.906,0,0,1,5.811,0V24.528H24.433a2.906,2.906,0,1,1,0,5.811Z" transform="translate(101.403 330.412) rotate(135)" fill="#fff"/><path d="M27.433,27.339H12.906A2.906,2.906,0,0,1,10,24.433V9.906a2.906,2.906,0,0,1,5.811,0V21.528H27.433a2.906,2.906,0,0,1,0,5.811Z" transform="translate(101.403 338.497) rotate(135)" fill="#fff"/></g></g></svg>